<svg xmlns="http://www.w3.org/2000/svg" enable-background="new 0 0 469.047 469.047" viewBox="0 0 469.047 469.047"><path d="M296.188,40.495c-9.227-2.619-18.757-4.661-28.326-6.069l4.658-31.659c10.942,1.61,21.845,3.947,32.406,6.944
			L296.188,40.495z"/><path d="M387.613,466.291l-99.35-50.031c-17.557,3.718-35.604,5.6-53.74,5.6c-117.419,0-234-86.651-234-210.93
			S117.104,0,234.523,0v32c-111.383,0-202,80.268-202,178.93c0,98.662,90.617,178.93,202,178.93c17.653,0,35.199-2.03,52.149-6.034
			c3.663-0.865,7.513-0.412,10.875,1.281l81.262,40.921v-82.993c0-4.329,1.754-8.473,4.862-11.487
			c34.082-33.046,52.852-75.883,52.852-120.618c0-69.399-45.966-133.144-117.103-162.396l12.17-29.596
			c77.854,32.014,136.933,105.782,136.933,191.992c0,51.283-20.44,100.287-57.714,138.73V452
			C411.773,466.5,400.023,473.25,387.613,466.291z"/><path d="M154.644,348.634c-19.652-8.89-36.77-22.698-49.395-40.189l-8.933-12.375c-8.663-12.002-7.354-28.31,3.115-38.774
			l34.937-34.929c12.928-12.926,34.936-11.03,45.536,3.659l12.102,16.765l74.882-74.863l-16.759-12.089
			c-14.694-10.6-16.591-32.617-3.657-45.546l34.935-34.927c10.464-10.459,26.764-11.77,38.764-3.114l12.325,8.892
			c17.571,12.677,31.514,29.843,40.317,49.642c13.804,31.049,6.827,68.492-17.171,92.484l-108.327,108.3
			C231.816,347.064,198.19,368.333,154.644,348.634z M167.895,319.506c19.159,8.494,41.97,4.253,56.795-10.568l108.327-108.3
			c14.838-14.834,19.079-37.682,10.556-56.853c-6.507-14.634-16.812-27.322-29.8-36.692l-10.945-7.896l-32.07,32.063l30.1,21.714
			c7.88,5.685,8.823,17.42,1.951,24.291L201.344,278.706c-6.871,6.869-18.6,5.926-24.286-1.951l-21.725-30.098l-32.072,32.064
			l7.937,10.995c9.349,12.952,22.001,23.236,36.59,29.741C167.823,319.474,167.859,319.49,167.895,319.506
			C187.055,328,167.859,319.49,167.895,319.506C187.055,328,167.859,319.49,167.895,319.506
			C187.055,328,167.859,319.49,167.895,319.506z"/></svg>