<svg xmlns="http://www.w3.org/2000/svg" enable-background="new 0 0 128 128" viewBox="0 0 128 128"><path fill="#343433" d="M125.8 40.5c0-4.6-3.8-8.4-8.4-8.4-4.6 0-8.4 3.8-8.4 8.4v64.9c0 .3.1.5.2.8l6.7 13.5c.6 1.1 2.4 1.1 3 0l6.7-13.4c.1-.2.2-.5.2-.8V44.3c0-.1 0-.1 0-.2 0-.1 0-.1 0-.2V40.5zM118.2 113.5h-1.6l-3.2-6.4h8L118.2 113.5zM91.9 7.5H49.3 6.7c-2.4 0-4.4 2-4.4 4.4v104.2c0 2.5 2 4.4 4.4 4.4h42.6 42.6c2.4 0 4.4-2 4.4-4.4V11.9C96.3 9.4 94.3 7.5 91.9 7.5zM87.4 111.7H49.3 11.1V16.3h38.2 38.2V111.7z"/><path fill="#343433" d="M22.7 33.6c0 1.5 1.3 2.8 2.8 2.8h47.6c1.5 0 2.8-1.3 2.8-2.8s-1.3-2.8-2.8-2.8H25.5C23.9 30.8 22.7 32.1 22.7 33.6zM73.1 48.8H25.5c-1.5 0-2.8 1.3-2.8 2.8s1.3 2.8 2.8 2.8h47.6c1.5 0 2.8-1.3 2.8-2.8S74.6 48.8 73.1 48.8zM73.1 66.9H25.5c-1.5 0-2.8 1.3-2.8 2.8 0 1.5 1.3 2.8 2.8 2.8h47.6c1.5 0 2.8-1.3 2.8-2.8C75.9 68.1 74.6 66.9 73.1 66.9z"/></svg>