<svg xmlns="http://www.w3.org/2000/svg" width="16" height="16" viewBox="0 0 16 16"><path style="line-height:normal;text-indent:0;text-align:start;text-decoration-line:none;text-decoration-style:solid;text-decoration-color:#000;text-transform:none;block-progression:tb;white-space:normal;isolation:auto;mix-blend-mode:normal;solid-color:#000;solid-opacity:1" d="M 8.3535156 1.0097656 C 8.042169 0.99367734 7.729262 0.9974625 7.4160156 1.0234375 L 7.4160156 1.0253906 C 6.5806919 1.0943906 5.7465497 1.3155187 4.953125 1.6992188 C 1.7794302 3.2342188 0.24089313 6.9002344 1.3691406 10.240234 C 2.4973554 13.580134 5.9440697 15.563375 9.3984375 14.859375 C 12.852791 14.155375 15.249335 10.981897 14.980469 7.4667969 A 0.50047584 0.50047584 0 1 0 13.982422 7.5410156 C 14.213437 10.561216 12.167273 13.272053 9.1992188 13.876953 C 6.2311524 14.481853 3.2857925 12.787769 2.3164062 9.9179688 C 1.346992 7.0482688 2.6598126 3.9165562 5.3867188 2.5976562 C 7.8334095 1.4143768 10.71692 2.033199 12.474609 4.0078125 L 11.5 4.0078125 A 0.50005 0.50005 0 1 0 11.5 5.0078125 L 13.5 5.0078125 A 0.50005 0.50005 0 0 0 14 4.5078125 L 14 2.5078125 A 0.50005 0.50005 0 0 0 13.492188 2 A 0.50005 0.50005 0 0 0 13 2.5078125 L 13 3.125 C 11.754589 1.8475882 10.090408 1.0995164 8.3535156 1.0097656 z " color="#000" enable-background="accumulate" font-family="sans-serif" font-weight="400" overflow="visible"/></svg>